<svg width="111" height="74" viewBox="0 0 111 74" fill="none" xmlns="http://www.w3.org/2000/svg">
<path d="M1.788 55.0662H3.57593V38.5463C3.57531 38.2235 3.65763 37.9062 3.81458 37.6265C3.97154 37.3468 4.19758 37.1145 4.46989 36.9531L16.3918 29.9578L23.3344 8.59766C23.453 8.23201 23.6807 7.91397 23.9853 7.68863C24.2898 7.46328 24.6557 7.34206 25.0311 7.34216H46.4863V5.50662C46.4863 5.0198 46.6747 4.55292 47.01 4.20869C47.3453 3.86446 47.8 3.67108 48.2742 3.67108H55.426C55.9002 3.67108 56.3549 3.86446 56.6902 4.20869C57.0255 4.55292 57.2139 5.0198 57.2139 5.50662V18.3554H66.1536V1.83554C66.1536 1.34872 66.3419 0.881846 66.6772 0.537616C67.0125 0.193385 67.4673 0 67.9415 0H92.9725C93.4467 0 93.9015 0.193385 94.2368 0.537616C94.5721 0.881846 94.7605 1.34872 94.7605 1.83554V18.3554H105.488C105.962 18.3554 106.417 18.5488 106.752 18.893C107.088 19.2372 107.276 19.7041 107.276 20.1909V36.7108H109.064C109.538 36.7108 109.993 36.9042 110.328 37.2484C110.663 37.5926 110.852 38.0595 110.852 38.5463V64.2439C110.852 64.7307 110.663 65.1976 110.328 65.5418C109.993 65.886 109.538 66.0794 109.064 66.0794H98.8995C97.8883 68.2756 96.2902 70.1316 94.2913 71.4314C92.2924 72.7312 89.9749 73.4213 87.6087 73.4213C85.2426 73.4213 82.9251 72.7312 80.9262 71.4314C78.9273 70.1316 77.3292 68.2756 76.318 66.0794H34.534C33.5228 68.2756 31.9247 70.1316 29.9257 71.4314C27.9268 72.7312 25.6093 73.4213 23.2432 73.4213C20.877 73.4213 18.5596 72.7312 16.5606 71.4314C14.5617 70.1316 12.9636 68.2756 11.9524 66.0794H1.788C1.31381 66.0794 0.859039 65.886 0.523735 65.5418C0.188438 65.1976 6.86646e-05 64.7307 6.86646e-05 64.2439V56.9017C6.86646e-05 56.4149 0.188438 55.948 0.523735 55.6038C0.859039 55.2596 1.31381 55.0662 1.788 55.0662ZM10.7277 40.3819H7.15179V44.0529H10.7277V40.3819ZM20.361 29.3686H39.3346V18.3554H23.9351L20.361 29.3686ZM26.3202 11.0132L25.1277 14.6843H41.1225C41.5967 14.6843 42.0515 14.8777 42.3868 15.2219C42.7221 15.5662 42.9104 16.033 42.9104 16.5199V31.2042C42.9104 31.691 42.7221 32.1579 42.3868 32.5021C42.0515 32.8463 41.5967 33.0397 41.1225 33.0397H18.3532L12.0954 36.7108H12.5156C12.9898 36.7108 13.4445 36.9042 13.7799 37.2484C14.1152 37.5926 14.3035 38.0595 14.3035 38.5463V45.8885C14.3035 46.3753 14.1152 46.8422 13.7799 47.1864C13.4445 47.5306 12.9898 47.724 12.5156 47.724H7.15179V55.0662H11.9524C12.9636 52.87 14.5617 51.014 16.5606 49.7142C18.5596 48.4143 20.877 47.7243 23.2432 47.7243C25.6093 47.7243 27.9268 48.4143 29.9257 49.7142C31.9247 51.014 33.5228 52.87 34.534 55.0662H46.4863V11.0132H26.3202ZM50.0622 7.34216V55.0662H53.638V7.34216H50.0622ZM57.2139 36.7108H78.6691V22.0265H73.3053V27.5331C73.3053 28.0199 73.1169 28.4868 72.7816 28.831C72.4463 29.1752 71.9915 29.3686 71.5174 29.3686H64.3656C63.8914 29.3686 63.4367 29.1752 63.1014 28.831C62.7661 28.4868 62.5777 28.0199 62.5777 27.5331V22.0265H57.2139V36.7108ZM69.7294 22.0265H66.1536V25.6975H69.7294V22.0265ZM82.245 3.67108H78.6691V7.34216H82.245V3.67108ZM91.1846 3.67108H85.8208V9.1777C85.8208 9.66451 85.6324 10.1314 85.2971 10.4756C84.9618 10.8198 84.5071 11.0132 84.0329 11.0132H76.8812C76.407 11.0132 75.9522 10.8198 75.6169 10.4756C75.2816 10.1314 75.0932 9.66451 75.0932 9.1777V3.67108H69.7294V18.3554H91.1846V3.67108ZM94.7605 22.0265H91.1846V25.6975H94.7605V22.0265ZM103.7 22.0265H98.3363V27.5331C98.3363 28.0199 98.148 28.4868 97.8127 28.831C97.4774 29.1752 97.0226 29.3686 96.5484 29.3686H89.3967C88.9225 29.3686 88.4677 29.1752 88.1324 28.831C87.7971 28.4868 87.6087 28.0199 87.6087 27.5331V22.0265H82.245V36.7108H103.7V22.0265ZM57.2139 40.3819V55.0662H76.318C77.3292 52.87 78.9273 51.014 80.9262 49.7142C82.9251 48.4143 85.2426 47.7243 87.6087 47.7243C89.9749 47.7243 92.2924 48.4143 94.2913 49.7142C96.2902 51.014 97.8883 52.87 98.8995 55.0662H107.276V40.3819H57.2139ZM107.276 62.4083V58.7373H99.9812C100.172 59.9531 100.172 61.1925 99.9812 62.4083H107.276ZM87.6087 69.7505C89.3768 69.7505 91.1052 69.2122 92.5754 68.2038C94.0455 67.1953 95.1913 65.7619 95.8679 64.0849C96.5445 62.4079 96.7216 60.5626 96.3766 58.7823C96.0317 57.002 95.1803 55.3667 93.93 54.0832C92.6798 52.7997 91.0869 51.9256 89.3528 51.5714C87.6187 51.2173 85.8212 51.3991 84.1877 52.0937C82.5542 52.7883 81.158 53.9647 80.1757 55.4739C79.1934 56.9832 78.6691 58.7576 78.6691 60.5728C78.6719 63.006 79.6147 65.3387 81.2906 67.0592C82.9665 68.7797 85.2387 69.7476 87.6087 69.7505ZM75.2363 62.4083C75.0455 61.1925 75.0455 59.9531 75.2363 58.7373H35.6157C35.8064 59.9531 35.8064 61.1925 35.6157 62.4083H75.2363ZM23.2432 69.7505C25.0113 69.7505 26.7397 69.2122 28.2098 68.2038C29.6799 67.1953 30.8257 65.7619 31.5024 64.0849C32.179 62.4079 32.356 60.5626 32.0111 58.7823C31.6661 57.002 30.8147 55.3667 29.5645 54.0832C28.3142 52.7997 26.7214 51.9256 24.9872 51.5714C23.2531 51.2173 21.4556 51.3991 19.8221 52.0937C18.1886 52.7883 16.7924 53.9647 15.8101 55.4739C14.8278 56.9832 14.3035 58.7576 14.3035 60.5728C14.3064 63.006 15.2491 65.3387 16.925 67.0592C18.6009 68.7797 20.8731 69.7476 23.2432 69.7505ZM3.57593 62.4083H10.8707C10.68 61.1925 10.68 59.9531 10.8707 58.7373H3.57593V62.4083Z" fill="#8E2C23"/>
<path d="M87.5569 54.8596C88.5896 54.8596 89.5991 55.1861 90.4577 55.798C91.3163 56.4099 91.9856 57.2796 92.3807 58.2971C92.7759 59.3146 92.8793 60.4342 92.6779 61.5144C92.4764 62.5946 91.9791 63.5868 91.2489 64.3655C90.5187 65.1443 89.5884 65.6746 88.5755 65.8895C87.5627 66.1044 86.5129 65.9941 85.5588 65.5726C84.6048 65.1512 83.7893 64.4374 83.2156 63.5217C82.6419 62.606 82.3356 61.5294 82.3356 60.428C82.3356 58.9512 82.8857 57.5348 83.8649 56.4905C84.8441 55.4462 86.1721 54.8596 87.5569 54.8596ZM87.5569 62.2842C87.9011 62.2842 88.2376 62.1753 88.5238 61.9714C88.8101 61.7674 89.0331 61.4775 89.1649 61.1383C89.2966 60.7992 89.3311 60.426 89.2639 60.0659C89.1967 59.7058 89.031 59.3751 88.7876 59.1155C88.5442 58.8559 88.2341 58.6792 87.8965 58.6075C87.5588 58.5359 87.2089 58.5727 86.8909 58.7132C86.5729 58.8537 86.301 59.0916 86.1098 59.3968C85.9186 59.702 85.8165 60.0609 85.8165 60.428C85.8165 60.9203 85.9999 61.3924 86.3262 61.7405C86.6526 62.0886 87.0953 62.2842 87.5569 62.2842Z" fill="#8E2C23"/>
<path d="M23.295 54.8596C24.3276 54.8596 25.3371 55.1861 26.1957 55.798C27.0544 56.4099 27.7236 57.2796 28.1188 58.2971C28.514 59.3146 28.6174 60.4342 28.4159 61.5144C28.2144 62.5946 27.7172 63.5868 26.987 64.3655C26.2567 65.1443 25.3264 65.6746 24.3136 65.8895C23.3007 66.1044 22.2509 65.9941 21.2969 65.5726C20.3428 65.1512 19.5273 64.4374 18.9536 63.5217C18.3799 62.606 18.0737 61.5294 18.0737 60.428C18.0737 58.9512 18.6238 57.5348 19.603 56.4905C20.5821 55.4462 21.9102 54.8596 23.295 54.8596ZM23.295 62.2842C23.6392 62.2842 23.9757 62.1753 24.2619 61.9714C24.5481 61.7674 24.7712 61.4775 24.9029 61.1383C25.0346 60.7992 25.0691 60.426 25.0019 60.0659C24.9348 59.7058 24.769 59.3751 24.5256 59.1155C24.2822 58.8559 23.9721 58.6792 23.6345 58.6075C23.2969 58.5359 22.9469 58.5727 22.6289 58.7132C22.3109 58.8537 22.0391 59.0916 21.8478 59.3968C21.6566 59.702 21.5545 60.0609 21.5545 60.428C21.5545 60.9203 21.7379 61.3924 22.0643 61.7405C22.3907 62.0886 22.8334 62.2842 23.295 62.2842Z" fill="#8E2C23"/>
</svg>
