<svg width="96" height="86" viewBox="0 0 96 86" fill="none" xmlns="http://www.w3.org/2000/svg">
<path d="M95.4049 70.9406C94.9564 68.8977 93.6876 67.1522 91.8318 66.0252C89.976 64.8988 87.7716 64.5351 85.6219 65.0002L75.6596 67.1591V63.3045C77.6576 61.5231 79.738 59.1973 81.2176 57.0715C83.8121 53.3439 85.6482 49.2504 86.6749 44.9072C87.8956 39.7398 87.9218 34.2695 86.75 29.0856C86.5342 28.1318 85.5417 27.523 84.534 27.728C83.5255 27.9316 82.8838 28.8709 83.0989 29.8255C84.1592 34.5138 84.1358 39.4624 83.0311 44.1356C82.1035 48.0599 80.4439 51.7585 78.0995 55.1273C77.4046 56.126 76.5616 57.1737 75.6596 58.1744V38.59C75.6596 37.6141 74.8239 36.8231 73.7928 36.8231H59.0258V17.9551C59.0258 16.982 58.1938 16.1917 57.1656 16.1883L40.5318 16.1351C40.5296 16.1351 40.5282 16.1351 40.526 16.1351C40.0316 16.1351 39.5576 16.3201 39.2083 16.6507C38.8568 16.982 38.6592 17.432 38.6592 17.902V27.717H23.89C22.8596 27.717 22.0233 28.5079 22.0233 29.4838V46.9805H17.8639V44.5807C17.8639 43.6055 17.0282 42.8146 15.9971 42.8146H14.0823C13.7563 41.116 13.5674 39.3906 13.523 37.6679C13.4136 33.4792 14.1151 29.381 15.607 25.4856C15.9548 24.5774 16.3501 23.6718 16.781 22.7953C17.2164 21.9105 16.8109 20.8594 15.8768 20.4473C14.942 20.0367 13.8314 20.4191 13.3968 21.3039C12.9192 22.2742 12.4817 23.2764 12.0974 24.2813C10.4465 28.5914 9.6706 33.1252 9.79018 37.7549C9.83467 39.4472 10.0053 41.1409 10.2948 42.8146H1.86669C0.835603 42.8146 -6.10352e-05 43.6055 -6.10352e-05 44.5814V75.6379C-6.10352e-05 76.6138 0.835603 77.4048 1.86669 77.4048H15.9971C17.0282 77.4048 17.8639 76.6138 17.8639 75.6379V73.958H24.8861L53.3315 84.5177C55.9872 85.504 58.7691 86.0002 61.5656 86.0002C63.4302 86.0002 65.3028 85.7794 67.1469 85.3356L89.4422 79.9722C93.6745 78.9542 96.2931 74.9871 95.4049 70.9406ZM71.9268 40.3568V67.968L66.9362 69.0495C66.3995 69.1655 65.8569 69.2573 65.3115 69.329C63.2318 69.6003 61.1099 69.543 59.0521 69.1572C59.0433 69.1551 59.0346 69.1537 59.0258 69.1517V66.4724C60.4492 64.4626 60.921 61.9145 60.175 59.5886C59.9672 58.9398 59.6719 58.3138 59.2963 57.7362C59.211 57.605 59.1221 57.4766 59.0294 57.351C59.0287 57.349 59.0273 57.3476 59.0258 57.3455V40.3562H71.9268V40.3568ZM42.3927 19.675L55.293 19.7158V54.5393L48.0834 51.7151L42.3927 49.4851V19.675ZM25.7568 31.2507H38.657V48.0212L36.3418 47.1143C36.1151 47.0253 35.8722 46.9798 35.6279 46.9798H25.7568V31.2507ZM14.1304 73.8711H3.73345V46.3476H12.5407C12.5444 46.3476 12.5487 46.3483 12.5531 46.3483C12.5568 46.3483 12.5597 46.3476 12.5633 46.3476H14.1304V73.8711ZM88.5227 76.5476L66.2274 81.9109C62.3787 82.8365 58.3907 82.5997 54.6944 81.2283L25.9208 70.5465C25.7035 70.4657 25.4724 70.425 25.239 70.425H17.8639V50.5142H35.2561L47.3345 55.246L53.944 57.8355C56.2826 58.7535 57.4019 61.3499 56.443 63.5605C56.2505 64.0043 56.012 64.426 55.6955 64.8022C54.5266 66.1984 52.6023 66.814 50.8026 66.3999C50.788 66.3965 50.7734 66.393 50.7589 66.3896C50.6509 66.364 50.5437 66.3344 50.4373 66.3012L37.8768 61.7309C37.7747 61.6936 37.7208 61.6743 37.7208 61.6743C36.7589 61.3237 35.679 61.7785 35.3086 62.6895C34.9389 63.5999 35.4187 64.6227 36.3812 64.9726C36.3812 64.9726 43.4632 67.5498 48.8637 69.5209C48.9723 69.5609 49.0802 69.5982 49.1889 69.6327L53.3358 71.1421C54.5893 71.5983 55.837 72.0525 57.1415 72.3679C59.3569 72.9034 61.656 73.1188 63.9399 73.0008C65.2277 72.9345 66.5132 72.7661 67.7704 72.4942L74.2099 71.0993C74.2165 71.0979 74.2231 71.0952 74.2296 71.0938L86.4554 68.4449C87.6185 68.193 88.8122 68.3897 89.8156 68.9991C90.8204 69.6092 91.5066 70.5541 91.7494 71.6598C92.2307 73.8497 90.8131 75.9968 88.5227 76.5476Z" fill="#8E2C23"/>
<path d="M23.8717 12.5666C24.318 12.5666 24.7657 12.4162 25.1223 12.1111C28.4532 9.26348 32.431 6.99212 36.6276 5.54207C41.1741 3.97124 46.1582 3.30109 51.0417 3.60476C54.5367 3.82217 57.961 4.52821 61.2191 5.70288C62.1816 6.05004 63.2609 5.59314 63.6277 4.68074C63.9952 3.76902 63.5117 2.74826 62.5477 2.4011C58.9425 1.10082 55.1536 0.319545 51.2867 0.0786755C45.8891 -0.256748 40.3771 0.484497 35.3471 2.22304C30.7043 3.827 26.3036 6.33991 22.6204 9.48847C21.8547 10.1428 21.7949 11.2601 22.4862 11.9841C22.8544 12.3706 23.362 12.5666 23.8717 12.5666Z" fill="#8E2C23"/>
<path fill-rule="evenodd" clip-rule="evenodd" d="M51.0674 3.60636C51.0672 3.60635 51.0671 3.60634 51.0669 3.60633L51.2862 0.0852051L51.0674 3.60636Z" fill="#8E2C23"/>
<path d="M66.2485 25.1762C66.6022 25.4668 67.0382 25.6089 67.4721 25.6089C67.9935 25.6089 68.5127 25.4033 68.8824 25.0016L84.2408 8.26824C84.9175 7.53182 84.8344 6.4158 84.0563 5.77601C83.2775 5.13621 82.0991 5.2142 81.4232 5.95062L66.064 22.684C65.3873 23.4204 65.4705 24.5364 66.2485 25.1762Z" fill="#8E2C23"/>
<path fill-rule="evenodd" clip-rule="evenodd" d="M67.7657 25.5871C67.7715 25.5862 67.7773 25.5853 67.7832 25.5844L68.5287 24.6769L82.8425 7.25346L81.7847 6.28251L82.5395 5.36462C82.5342 5.36543 82.5288 5.36625 82.5234 5.3671L67.4643 23.6964L66.2015 22.5341L66.1981 22.5379L67.4626 23.6985L68.5204 24.6693L67.7657 25.5871ZM68.5204 24.6693L82.8425 7.25346L81.7847 6.28251L67.4643 23.6964L68.5204 24.6693Z" fill="#8E2C23"/>
<path d="M80.0121 17.6224C77.4278 17.6224 75.3255 19.6122 75.3255 22.0582C75.3255 24.5042 77.4278 26.494 80.0121 26.494C82.5963 26.494 84.6986 24.5035 84.6986 22.0582C84.6986 19.6122 82.5963 17.6224 80.0121 17.6224ZM80.0121 22.9603C79.4863 22.9603 79.059 22.5558 79.059 22.0582C79.059 21.5613 79.4863 21.1561 80.0121 21.1561C80.5371 21.1561 80.9651 21.5613 80.9651 22.0582C80.9651 22.5558 80.5371 22.9603 80.0121 22.9603Z" fill="#8E2C23"/>
<path d="M69.6457 13.6893C72.2299 13.6893 74.3322 11.6995 74.3322 9.25352C74.3322 6.80753 72.2299 4.81775 69.6457 4.81775C67.0614 4.81775 64.9591 6.80753 64.9591 9.25352C64.9591 11.6995 67.0614 13.6893 69.6457 13.6893ZM69.6457 8.35077C70.1714 8.35077 70.5987 8.75591 70.5987 9.25352C70.5987 9.75045 70.1714 10.1556 69.6457 10.1556C69.1199 10.1556 68.6926 9.75045 68.6926 9.25352C68.6926 8.75591 69.1199 8.35077 69.6457 8.35077Z" fill="#8E2C23"/>
<path d="M17.2351 16.7188C17.534 17.398 18.2698 17.8466 19.0493 17.8079C19.82 17.77 20.4953 17.2765 20.7337 16.5835C20.9743 15.8844 20.7118 15.0879 20.0942 14.6413C19.4649 14.1872 18.5811 14.1589 17.922 14.5737C17.1906 15.034 16.8974 15.952 17.2351 16.7188Z" fill="#8E2C23"/>
<path fill-rule="evenodd" clip-rule="evenodd" d="M17.9912 17.5499C17.9921 17.5504 17.993 17.5509 17.994 17.5515L18.9565 16.2178L19.8277 17.6022C19.8276 17.6023 19.8278 17.6022 19.8277 17.6022L18.9565 16.2178L20.0937 14.642L18.9556 16.216L17.9912 17.5499Z" fill="#8E2C23"/>
</svg>
