<svg width="27" height="18" viewBox="0 0 27 18" fill="none" xmlns="http://www.w3.org/2000/svg">
<path d="M27 16.8015C27 17.4616 26.4366 17.998 25.7434 17.998H1.25659C0.563373 17.998 0 17.4616 0 16.8015V1.19654C0 0.53645 0.563373 0 1.25659 0H25.7434C26.4366 0 27 0.53645 27 1.19654V16.8015Z" fill="#0089CD"/>
<path d="M27 1.19658C27 0.891462 26.8785 0.612268 26.6817 0.400879L0 15.0805V16.8035C0 17.308 0.326714 17.7388 0.789559 17.9143L26.9979 3.49594V1.19658H27Z" fill="#E6E7E8"/>
<path d="M15.7786 0H11.2234V18H15.7786V0Z" fill="#E6E7E8"/>
<path d="M27 6.83032H0V11.1698H27V6.83032Z" fill="#E6E7E8"/>
<path d="M27 16.8134V14.7832L0.540335 0.227295C0.213621 0.442673 0 0.801636 0 1.20846V3.19672L26.4932 17.7706C26.7989 17.5552 27 17.2062 27 16.8134Z" fill="#E6E7E8"/>
<path d="M19.4415 11.2097H17.5587H17.3472L26.9999 16.5922V15.3677L19.4415 11.2097Z" fill="#DA2128"/>
<path d="M0 1.49365V2.73207L7.5228 6.87012H9.77001L0 1.49365Z" fill="#DA2128"/>
<path d="M27 2.06597V1.19648C27 1.07882 26.9811 0.963158 26.9476 0.855469L16.0907 6.83021H18.34L27 2.06597Z" fill="#DA2128"/>
<path d="M0.278396 17.5932L11.2526 11.5427H9.00334L0.00613403 16.5203V16.8494C0.00613403 17.1306 0.108756 17.3898 0.278396 17.5932Z" fill="#DA2128"/>
<path d="M15.1817 0H11.8162V18H15.1817V0Z" fill="#DA2128"/>
<path d="M27 7.39673H0V10.6055H27V7.39673Z" fill="#DA2128"/>
</svg>
