<svg width="93" height="94" viewBox="0 0 93 94" fill="none" xmlns="http://www.w3.org/2000/svg">
<path d="M92.5141 89.495L71.252 57.2589C70.7191 56.451 69.8274 55.9686 68.8667 55.9686C67.9058 55.9686 67.0142 56.451 66.4812 57.2589L63.7007 61.4745L50.8696 42.0209V24.0447H60.1817C60.1817 24.0447 60.1836 31.9374 60.1866 32.0042C60.2964 34.3632 62.2517 36.2109 64.6383 36.2109H83.0249C84.0586 36.2109 84.9855 35.6715 85.5044 34.7677C86.0234 33.8641 86.027 32.7827 85.5141 31.8755L81.2086 24.2599C81.1838 24.216 81.1838 24.1615 81.2086 24.1174L85.5141 16.502C86.027 15.5948 86.0234 14.5135 85.5044 13.6098C84.9855 12.706 84.0586 12.1666 83.0249 12.1666H68.9248V7.45996C68.9248 5.02349 66.9638 3.0416 64.5535 3.0416H50.8698V2.89784C50.8696 1.29984 49.5836 0 48.0027 0H44.9937C43.4129 0 42.1267 1.29984 42.1267 2.89766V8.03535C42.1267 8.79598 42.7366 9.4123 43.489 9.4123C44.2413 9.4123 44.8513 8.79598 44.8513 8.03535V2.89766C44.8513 2.81835 44.9152 2.75391 44.9937 2.75391H48.0027C48.0812 2.75391 48.145 2.81853 48.145 2.89766V38.2444C47.6698 37.9072 47.0974 37.7192 46.4982 37.7192C45.899 37.7192 45.3264 37.907 44.8513 38.2444V13.5433C44.8513 12.7827 44.2413 12.1664 43.489 12.1664C42.7366 12.1664 42.1267 12.7827 42.1267 13.5433V42.0209L29.2956 61.4745L26.515 57.2589C25.9821 56.4509 25.0904 55.9686 24.1297 55.9686C23.169 55.9686 22.2773 56.4509 21.7444 57.2589L0.482282 89.495C-0.105326 90.386 -0.159818 91.5257 0.339875 92.4696C0.83975 93.4136 1.80826 94 2.86759 94H19.7C20.4524 94 21.0623 93.3837 21.0623 92.623C21.0623 91.8624 20.4524 91.2461 19.7 91.2461H12.9336L32.3853 61.7547L40.3359 57.7367L45.6808 61.7885C46.1653 62.1557 46.8313 62.1558 47.3156 61.7885L52.6604 57.7369L60.6113 61.7551L80.0629 91.2461H25.2008C24.4485 91.2461 23.8385 91.8624 23.8385 92.623C23.8385 93.3837 24.4485 94 25.2008 94H90.1288C91.1882 94 92.1565 93.4136 92.6564 92.4696C93.1562 91.5255 93.1017 90.386 92.5141 89.495ZM64.5533 24.0447C65.4613 24.0447 66.2 24.7914 66.2 25.7092C66.2 26.627 65.4613 27.3736 64.5533 27.3736C63.9851 27.3736 63.4257 27.4888 62.9064 27.7026V24.0447H64.5533ZM83.0249 14.9201C83.0494 14.9201 83.1068 14.9201 83.148 14.9919C83.1893 15.0637 83.1606 15.114 83.1486 15.1355L78.8431 22.7508C78.3416 23.6375 78.3416 24.7394 78.8431 25.626L83.1486 33.2415C83.1606 33.263 83.1893 33.3135 83.148 33.3851C83.1068 33.4568 83.0494 33.4568 83.0249 33.4568H64.6383C63.725 33.4568 62.9489 32.7471 62.9083 31.8746C62.8869 31.4131 63.0478 30.9758 63.3615 30.6436C63.6754 30.311 64.0988 30.1276 64.5533 30.1276C66.9638 30.1276 68.9247 28.1455 68.9247 25.7092V14.9201H83.0249ZM64.5533 5.79532C65.4613 5.79532 66.2 6.542 66.2 7.45978V21.6172C65.6915 21.4074 65.1356 21.2906 64.5533 21.2906H50.8696V5.79532H64.5533ZM2.86759 91.2461C2.83998 91.2461 2.7824 91.2461 2.74207 91.1703C2.70193 91.0943 2.7339 91.0458 2.74916 91.0225L24.0113 58.7864C24.0227 58.7689 24.0534 58.7223 24.1297 58.7223C24.2058 58.7223 24.2365 58.7689 24.2481 58.7864L27.6584 63.9567L9.65913 91.2461H2.86759ZM53.1257 54.8931C52.6642 54.6595 52.1118 54.7102 51.6989 55.023L46.4982 58.9657L41.2973 55.023C40.8846 54.7104 40.3322 54.6597 39.8707 54.8931L35.4316 57.1366L46.38 40.5373C46.3916 40.5197 46.4223 40.4731 46.4982 40.4731C46.5741 40.4731 46.6048 40.5197 46.6165 40.5373L57.5648 57.1366L53.1257 54.8931ZM90.2543 91.1703C90.214 91.2461 90.1566 91.2461 90.129 91.2461H83.3375L65.3382 63.9569L68.7485 58.7864C68.7601 58.7687 68.7906 58.7223 68.8669 58.7223C68.943 58.7223 68.9737 58.7687 68.9851 58.7864L90.2473 91.0225C90.2625 91.0458 90.2943 91.0943 90.2543 91.1703Z" fill="#8E2C23"/>
</svg>
