<svg width="26" height="18" viewBox="0 0 26 18" fill="none" xmlns="http://www.w3.org/2000/svg">
<path d="M26 16.8015C26 17.4616 25.4575 17.998 24.7899 17.998H1.21005C0.542507 17.998 0 17.4616 0 16.8015V1.19654C0 0.53645 0.542507 0 1.21005 0H24.7899C25.4575 0 26 0.53645 26 1.19654V16.8015Z" fill="#00AFCA"/>
<path d="M13.1634 10.701C15.332 10.701 17.09 9.11713 17.09 7.16327C17.09 5.20941 15.332 3.62549 13.1634 3.62549C10.9948 3.62549 9.23676 5.20941 9.23676 7.16327C9.23676 9.11713 10.9948 10.701 13.1634 10.701Z" fill="#FEC50C"/>
<path d="M13.1634 3.14282C13.3973 3.14082 13.484 3.0092 13.484 2.85166C13.484 2.64226 13.1634 1.63916 13.1634 1.63916C13.1634 1.63916 12.8427 2.64027 12.8427 2.85166C12.8427 3.0092 12.9294 3.14282 13.1634 3.14282Z" fill="#FEC50C"/>
<path d="M17.9511 6.87402C17.7756 6.87402 17.6264 6.95379 17.6264 7.16319C17.6284 7.37258 17.7756 7.45235 17.9511 7.45235C18.185 7.45235 19.2963 7.16319 19.2963 7.16319C19.2963 7.16319 18.183 6.87402 17.9511 6.87402Z" fill="#FEC50C"/>
<path d="M12.8427 11.4748C12.8427 11.6841 13.1634 12.6873 13.1634 12.6873C13.1634 12.6873 13.484 11.6861 13.484 11.4748C13.484 11.3172 13.3973 11.1836 13.1634 11.1836C12.9294 11.1856 12.8427 11.3172 12.8427 11.4748Z" fill="#FEC50C"/>
<path d="M8.70027 7.16319C8.69825 6.95379 8.55103 6.87402 8.37557 6.87402C8.14163 6.87402 7.0304 7.16319 7.0304 7.16319C7.0304 7.16319 8.14163 7.45235 8.37557 7.45235C8.55103 7.45235 8.70027 7.37258 8.70027 7.16319Z" fill="#FEC50C"/>
<path d="M14.8716 3.4498C15.0894 3.52757 15.2245 3.43584 15.2931 3.29026C15.3818 3.09682 15.5109 2.05981 15.5109 2.05981C15.5109 2.05981 14.7889 2.87546 14.7002 3.0689C14.6316 3.21448 14.6558 3.36804 14.8716 3.4498Z" fill="#FEC50C"/>
<path d="M17.7091 8.54526C17.5478 8.48544 17.3764 8.50737 17.2876 8.70081C17.2009 8.89625 17.3017 9.01989 17.4651 9.07972C17.6809 9.15949 18.8304 9.27715 18.8304 9.27715C18.8304 9.27715 17.9249 8.62703 17.7091 8.54526Z" fill="#FEC50C"/>
<path d="M11.4552 10.8765C11.2374 10.7987 11.1022 10.8905 11.0337 11.036C10.9449 11.2295 10.8159 12.2665 10.8159 12.2665C10.8159 12.2665 11.5379 11.4508 11.6266 11.2574C11.6952 11.1118 11.671 10.9583 11.4552 10.8765Z" fill="#FEC50C"/>
<path d="M9.03909 5.62565C9.12581 5.43022 9.02497 5.30657 8.86363 5.24675C8.64784 5.16698 7.49829 5.04932 7.49829 5.04932C7.49829 5.04932 8.40381 5.69944 8.61961 5.7812C8.77893 5.84103 8.95035 5.81909 9.03909 5.62565Z" fill="#FEC50C"/>
<path d="M16.3196 4.32123C16.487 4.4688 16.6523 4.43091 16.7754 4.31924C16.9407 4.16967 17.4994 3.2583 17.4994 3.2583C17.4994 3.2583 16.485 3.76284 16.3216 3.91042C16.1966 4.0201 16.1542 4.17166 16.3196 4.32123Z" fill="#FEC50C"/>
<path d="M16.7753 10.0071C16.6523 9.89538 16.4849 9.85549 16.3195 10.0051C16.1562 10.1566 16.1985 10.3042 16.3216 10.4159C16.4869 10.5654 17.4993 11.068 17.4993 11.068C17.4993 11.068 16.9407 10.1566 16.7753 10.0071Z" fill="#FEC50C"/>
<path d="M10.0072 10.005C9.8398 9.85742 9.67443 9.89531 9.55141 10.007C9.38603 10.1566 8.82739 11.0679 8.82739 11.0679C8.82739 11.0679 9.84182 10.5634 10.0052 10.4158C10.1282 10.3061 10.1726 10.1546 10.0072 10.005Z" fill="#FEC50C"/>
<path d="M10.0072 4.32123C10.1706 4.16967 10.1282 4.02209 10.0052 3.91042C9.8398 3.76085 8.82739 3.2583 8.82739 3.2583C8.82739 3.2583 9.38603 4.17166 9.55141 4.31924C9.67443 4.43091 9.84182 4.4688 10.0072 4.32123Z" fill="#FEC50C"/>
<path d="M17.2856 5.62565C17.3783 5.81909 17.5457 5.84103 17.7071 5.7812C17.9229 5.70143 18.8284 5.04932 18.8284 5.04932C18.8284 5.04932 17.6788 5.16498 17.463 5.24675C17.3017 5.30657 17.1968 5.43022 17.2856 5.62565Z" fill="#FEC50C"/>
<path d="M15.5109 12.2663C15.5109 12.2663 15.3818 11.2293 15.2931 11.0359C15.2265 10.8903 15.0874 10.7966 14.8716 10.8764C14.6578 10.9601 14.6316 11.1117 14.6982 11.2573C14.7889 11.4527 15.5109 12.2663 15.5109 12.2663Z" fill="#FEC50C"/>
<path d="M9.03909 8.70081C8.94632 8.50737 8.77893 8.48544 8.61759 8.54526C8.4018 8.62503 7.49628 9.27715 7.49628 9.27715C7.49628 9.27715 8.64583 9.16148 8.86162 9.07972C9.02498 9.01989 9.12985 8.89625 9.03909 8.70081Z" fill="#FEC50C"/>
<path d="M11.4551 3.4498C11.6689 3.36604 11.6951 3.21448 11.6285 3.0689C11.5398 2.87546 10.8178 2.05981 10.8178 2.05981C10.8178 2.05981 10.9469 3.09682 11.0356 3.29026C11.1022 3.43584 11.2393 3.52957 11.4551 3.4498Z" fill="#FEC50C"/>
<path d="M14.0346 3.22057C14.2645 3.25846 14.3794 3.14479 14.4117 2.99123C14.4581 2.78582 14.3593 1.74683 14.3593 1.74683C14.3593 1.74683 13.8268 2.67215 13.7825 2.87955C13.7482 3.03311 13.8047 3.17869 14.0346 3.22057Z" fill="#FEC50C"/>
<path d="M17.9209 7.72158C17.7495 7.69167 17.5861 7.74153 17.5397 7.94893C17.4974 8.15633 17.6224 8.25803 17.7959 8.28994C18.0258 8.33182 19.1773 8.24208 19.1773 8.24208C19.1773 8.24208 18.1508 7.76147 17.9209 7.72158Z" fill="#FEC50C"/>
<path d="M11.915 11.3352C11.8686 11.5406 11.9674 12.5796 11.9674 12.5796C11.9674 12.5796 12.4998 11.6542 12.5442 11.4468C12.5785 11.2913 12.522 11.1457 12.2921 11.1038C12.0622 11.0679 11.9493 11.1816 11.915 11.3352Z" fill="#FEC50C"/>
<path d="M8.78495 6.37949C8.8273 6.17209 8.70226 6.07039 8.52882 6.03848C8.29891 5.9966 7.14734 6.08634 7.14734 6.08634C7.14734 6.08634 8.17588 6.56496 8.40378 6.60684C8.57722 6.63675 8.74058 6.5849 8.78495 6.37949Z" fill="#FEC50C"/>
<path d="M15.642 3.82094C15.8376 3.93661 15.9909 3.8708 16.0897 3.73918C16.2188 3.56369 16.5697 2.57056 16.5697 2.57056C16.5697 2.57056 15.6843 3.24262 15.5553 3.41811C15.4585 3.54773 15.4484 3.70328 15.642 3.82094Z" fill="#FEC50C"/>
<path d="M17.3219 9.31892C17.1767 9.23117 17.0032 9.22319 16.8742 9.39669C16.7471 9.57219 16.8197 9.71178 16.9649 9.79953C17.1585 9.91719 18.2617 10.2323 18.2617 10.2323C18.2617 10.2323 17.5155 9.43458 17.3219 9.31892Z" fill="#FEC50C"/>
<path d="M10.7715 10.9084C10.8683 10.7768 10.8784 10.6212 10.6848 10.5056C10.4892 10.3899 10.3359 10.4557 10.2371 10.5873C10.108 10.7628 9.75708 11.7559 9.75708 11.7559C9.75708 11.7559 10.6404 11.0839 10.7715 10.9084Z" fill="#FEC50C"/>
<path d="M9.00487 5.00735C9.15008 5.0951 9.32352 5.10308 9.45259 4.92958C9.57965 4.75409 9.50704 4.61449 9.36184 4.52674C9.16823 4.40908 8.06506 4.09399 8.06506 4.09399C8.06506 4.09399 8.81126 4.89169 9.00487 5.00735Z" fill="#FEC50C"/>
<path d="M16.8742 4.92958C17.0073 5.10308 17.1767 5.0951 17.3219 5.00735C17.5155 4.88969 18.2617 4.09399 18.2617 4.09399C18.2617 4.09399 17.1585 4.40908 16.9649 4.52674C16.8197 4.61449 16.7451 4.75409 16.8742 4.92958Z" fill="#FEC50C"/>
<path d="M16.5697 11.7559C16.5697 11.7559 16.2188 10.7627 16.0897 10.5872C15.9929 10.4556 15.8376 10.3878 15.642 10.5055C15.4504 10.6251 15.4585 10.7767 15.5553 10.9083C15.6864 11.0838 16.5697 11.7559 16.5697 11.7559Z" fill="#FEC50C"/>
<path d="M9.45259 9.39669C9.31948 9.22319 9.15008 9.23117 9.00487 9.31892C8.81126 9.43658 8.06506 10.2323 8.06506 10.2323C8.06506 10.2323 9.16823 9.91719 9.36184 9.79953C9.50704 9.71178 9.58166 9.57219 9.45259 9.39669Z" fill="#FEC50C"/>
<path d="M10.6827 3.82094C10.8743 3.70129 10.8662 3.54973 10.7694 3.41811C10.6404 3.24262 9.755 2.57056 9.755 2.57056C9.755 2.57056 10.1059 3.56369 10.235 3.73918C10.3338 3.8708 10.4891 3.93661 10.6827 3.82094Z" fill="#FEC50C"/>
<path d="M17.7958 6.03848C17.6244 6.06839 17.4953 6.17209 17.5397 6.37949C17.5881 6.5849 17.7474 6.63675 17.9209 6.60684C18.1508 6.56496 19.1773 6.08634 19.1773 6.08634C19.1773 6.08634 18.0257 5.9966 17.7958 6.03848Z" fill="#FEC50C"/>
<path d="M14.0346 11.1058C13.8067 11.1497 13.7482 11.2933 13.7825 11.4488C13.8289 11.6542 14.3593 12.5816 14.3593 12.5816C14.3593 12.5816 14.4581 11.5426 14.4117 11.3372C14.3774 11.1816 14.2625 11.0659 14.0346 11.1058Z" fill="#FEC50C"/>
<path d="M8.78494 7.94683C8.73654 7.74142 8.57722 7.68957 8.40378 7.71948C8.17387 7.76136 7.14734 8.23998 7.14734 8.23998C7.14734 8.23998 8.30092 8.32772 8.52882 8.28784C8.70226 8.25793 8.83133 8.15423 8.78494 7.94683Z" fill="#FEC50C"/>
<path d="M12.2921 3.22061C12.52 3.17674 12.5785 3.03315 12.5442 2.8776C12.4978 2.67219 11.9674 1.74487 11.9674 1.74487C11.9674 1.74487 11.8686 2.78387 11.915 2.98928C11.9493 3.14483 12.0642 3.26049 12.2921 3.22061Z" fill="#FEC50C"/>
<path d="M13.3953 15.4594C13.5345 15.4634 13.6736 15.4913 13.8108 15.4693C13.8431 15.4614 13.8955 15.4594 13.9157 15.4414C13.8531 15.4095 13.7805 15.4075 13.712 15.3995H13.1553C13 15.3856 12.8387 15.3836 12.6935 15.3317C12.6552 15.3178 12.6189 15.2839 12.5826 15.3198C12.5281 15.3377 12.4676 15.3497 12.4091 15.3537C12.3063 15.3616 12.2054 15.3417 12.1107 15.3078C12.1792 15.2221 12.2599 15.1483 12.3345 15.0685C12.274 15.0605 12.2155 15.0486 12.155 15.0346C12.2619 14.9688 12.3587 14.895 12.4616 14.8252C12.3567 14.8312 12.2538 14.8431 12.155 14.8711C12.0179 14.887 11.8868 14.9309 11.7497 14.9508L11.6952 14.9588L11.6045 14.9668C11.6105 14.9887 11.6145 15.0127 11.6145 15.0346C11.6145 15.0585 11.6125 15.0805 11.6045 15.1004C11.5984 15.1183 11.5803 15.1423 11.5661 15.1562C11.546 15.1762 11.5258 15.1921 11.5016 15.2021C11.4774 15.2121 11.4512 15.2161 11.425 15.2181C11.3987 15.2181 11.3705 15.2181 11.3463 15.2101C11.3201 15.2021 11.2959 15.1881 11.2737 15.1702C11.2475 15.1762 11.2172 15.1802 11.191 15.1842C11.1628 15.1862 11.1386 15.1862 11.1144 15.1842C11.0862 15.1762 11.0599 15.1702 11.0317 15.1602C11.0055 15.1503 10.9793 15.1383 10.9551 15.1243C10.8562 15.1762 10.7453 15.226 10.6848 15.3198C10.6505 15.3616 10.6445 15.4095 10.6364 15.4594C10.6324 15.5212 10.6485 15.585 10.6788 15.6428C10.6888 15.6588 10.6989 15.583 10.7312 15.571C10.7857 15.5292 10.8562 15.4992 10.9248 15.4833C10.9833 15.4554 10.9772 15.4853 10.951 15.5272C10.945 15.5491 10.9127 15.6329 10.9571 15.591C11.1547 15.5112 11.3725 15.4973 11.5863 15.4813C11.8949 15.4534 12.2054 15.4454 12.516 15.4434C12.8125 15.4474 13.1029 15.4494 13.3953 15.4594Z" fill="#FEC50C"/>
<path d="M22.2569 9.80752C22.2791 9.63003 21.9705 9.61208 21.8919 9.74969C21.4845 10.1027 21.1154 10.5215 20.5931 10.7428C21.0932 10.3081 21.5067 9.79356 21.8656 9.2611C21.9423 9.10156 22.15 8.91211 22.0371 8.73661C21.8556 8.60101 21.6277 8.72465 21.5329 8.88818C21.2162 9.2611 20.9763 9.69584 20.5689 9.99897C20.9258 9.38674 21.2949 8.73263 21.303 8.02667C21.3009 7.88109 21.2687 7.66571 21.0509 7.69363C20.8774 7.72155 20.9178 7.95687 20.8472 8.07453C20.6899 8.55713 20.6153 9.08162 20.2906 9.5044C20.3632 9.11153 20.4902 8.70271 20.3934 8.30586C20.347 8.12837 20.0304 8.20415 20.0707 8.37965C19.6916 10.1106 18.4009 11.6263 16.7148 12.5017C15.9424 12.8946 15.0793 13.1499 14.202 13.2635C13.966 13.3094 13.7099 13.2835 13.484 13.3553C12.9375 13.7322 12.6067 14.3644 11.913 14.5638C11.6024 14.7034 11.197 14.7313 10.9752 14.9905C10.955 15.0244 10.951 15.0623 10.953 15.0982C11.1022 15.2219 11.2131 15.1002 11.3483 15.0324C11.3362 15.0444 11.3281 15.0583 11.3281 15.0763C11.3281 15.1102 11.3583 15.1381 11.3967 15.1381C11.435 15.1381 11.4652 15.1102 11.4652 15.0763C11.4652 15.0424 11.435 15.0145 11.3967 15.0145C11.3805 15.0145 11.3684 15.0225 11.3563 15.0284C11.3664 15.0244 11.3765 15.0185 11.3866 15.0145C11.9029 14.8549 12.3526 14.5757 12.7983 14.2946C13.0665 14.0931 13.3005 13.8339 13.6615 13.7681C14.3673 13.5766 15.1156 13.5986 15.8234 13.4231C16.3619 12.759 17.2775 12.5217 18.0439 12.1388C18.2153 12.0909 18.2819 11.9633 18.3383 11.8217C18.6308 11.4049 19.0301 11.036 19.502 10.7847C19.7259 10.675 19.9921 10.6112 20.2442 10.6611C20.226 10.9323 20.0526 11.1716 19.8449 11.359C20.0163 11.355 20.1615 11.2593 20.3349 11.2633C20.3934 11.5405 20.0606 11.6861 19.8832 11.8596C19.982 11.8795 20.3611 11.9055 20.1534 11.9952C19.8912 12.1587 19.5907 12.2724 19.3487 12.4638C19.5726 12.4997 19.5988 12.5436 19.3709 12.6154C19.2479 12.6912 19.0099 12.7171 18.9877 12.8627C19.1571 12.9564 18.9091 13.0502 18.8143 13.0801C18.6328 13.118 18.4412 13.1897 18.6832 13.3134C18.5924 13.437 18.3948 13.465 18.2355 13.453C18.2839 13.5946 18.3545 13.7521 18.1508 13.8139C17.695 14.125 17.1585 14.3504 16.5858 14.4022C17.3017 14.4521 18.0399 14.3324 18.6509 13.9815C18.7316 13.8957 19.1551 13.802 18.9192 13.7302C18.8082 13.6883 18.5682 13.6424 18.5521 13.5647C18.8829 13.3812 19.3003 13.445 19.6573 13.3373C19.6674 13.2336 19.387 13.2615 19.2822 13.2376C19.0321 13.2197 19.0482 13.1618 19.2882 13.1399C19.5928 13.0681 19.9376 13.0521 20.1938 12.8747C19.986 12.7869 19.7238 12.8647 19.502 12.7929C19.8791 12.6453 20.3228 12.6294 20.6616 12.406C20.8149 12.2525 20.464 12.3003 20.3611 12.3043C20.1514 12.3362 20.0566 12.2465 20.2926 12.1687C20.6979 11.8995 21.2102 11.726 21.4946 11.3351C21.5611 11.2474 21.6539 10.9841 21.4381 11.0798C21.1557 11.1636 20.9077 11.4508 20.585 11.363C21.2183 10.9243 21.8233 10.4198 22.2569 9.80752Z" fill="#FEC50C"/>
<path d="M15.9848 14.8651C15.8255 14.8791 15.6641 14.8571 15.6823 15.0266C15.652 15.1602 15.3394 15.1164 15.4261 15.23C15.525 15.3756 15.2487 15.4634 15.1337 15.5252C14.4299 15.7625 13.6595 15.6149 12.9254 15.6947C12.4998 15.7266 11.9936 15.8742 11.8726 16.291C12.1832 16.3648 12.4434 16.1274 12.6914 15.9938C12.766 16.0297 12.645 16.273 12.762 16.3588C13.002 16.3408 13.1573 16.1055 13.2964 15.946C13.4134 16.0676 13.242 16.2511 13.3489 16.3588C13.6252 16.3827 13.7422 16.0896 13.9398 15.9699C14.0729 15.95 13.8853 16.2331 13.9882 16.3109C14.1778 16.3847 14.3754 16.2611 14.4379 16.0955C14.5267 15.8602 14.6094 16.0337 14.6436 16.1833C14.7546 16.3508 14.9683 16.1933 15.049 16.0816C15.1478 15.8542 15.2446 16.0537 15.3737 16.1494C15.646 16.1873 15.7327 15.8981 15.9001 15.7705C15.888 15.9141 16.0594 16.0975 16.2006 15.9539C16.3175 15.8562 16.3296 15.6488 16.4567 15.587C16.6342 15.6468 16.7955 15.8503 17.0073 15.7366C17.1343 15.6528 17.1121 15.4893 17.1424 15.3637C17.1 15.1263 17.3199 15.4534 17.4671 15.4315C17.7757 15.5272 18.1588 15.3098 18.1064 14.9967C17.3985 14.9728 16.6947 14.8372 15.9848 14.8651Z" fill="#FEC50C"/>
<path d="M6.05027 10.3778C6.19345 10.4935 6.14102 10.2661 6.25799 10.2402C6.38101 10.322 6.51009 10.3977 6.62101 10.4955C7.1978 10.9422 7.53661 11.5863 8.12551 12.019C8.4018 12.2304 8.74868 12.3361 9.09153 12.4199C9.46867 12.6213 9.74294 12.9444 10.0797 13.1937C10.4004 13.4589 10.8501 13.4948 11.2636 13.5147C11.7657 13.5367 12.3385 13.5247 12.7338 13.8498C12.8649 13.7002 12.9254 13.5087 13.0282 13.3412C12.9113 13.3352 12.7963 13.3313 12.6793 13.3233C11.3967 13.2555 10.1382 12.8646 9.07943 12.2105C7.79274 11.4108 6.80655 10.2202 6.3669 8.86416C6.29026 8.66474 6.27211 8.43341 6.1874 8.24595C6.08253 8.16817 5.92119 8.20806 5.90506 8.33569C5.83044 8.72656 5.94338 9.12341 6.018 9.5083C5.67515 9.04963 5.60053 8.48725 5.43112 7.96875C5.37465 7.87303 5.40087 7.6736 5.22945 7.69753C5.02374 7.69155 5.01365 7.89895 5.00559 8.03655C5.01365 8.74251 5.39079 9.39064 5.7417 10.0049C5.33028 9.69177 5.08626 9.24506 4.75551 8.86815C4.67081 8.73853 4.50341 8.63483 4.33401 8.71061C4.1646 8.76445 4.25939 8.94393 4.31586 9.04564C4.63047 9.60004 5.06004 10.0986 5.50978 10.5692C5.54608 10.6291 5.81834 10.7946 5.6449 10.7188C5.15684 10.4875 4.80391 10.0906 4.41266 9.7516C4.33401 9.61799 4.03149 9.64391 4.0557 9.81741C4.41468 10.3359 4.9108 10.7647 5.42305 11.1595C5.48557 11.2413 5.73565 11.333 5.68927 11.3889C5.33835 11.4387 5.10037 11.1157 4.77366 11.0778C4.66072 11.0997 4.79988 11.2772 4.84828 11.343C5.26978 11.7478 5.86271 11.9512 6.4153 12.1706C6.22169 12.2444 6.00186 12.1866 5.80019 12.1866C5.71952 12.2065 5.43919 12.1128 5.50776 12.2284C5.80422 12.5296 6.30034 12.4299 6.67949 12.5715C6.58672 12.6413 6.45765 12.6572 6.34068 12.6752C6.24791 12.7091 6.02203 12.6811 6.00791 12.7609C6.22371 12.8945 6.50605 12.8666 6.75008 12.9264C6.99411 12.9404 6.88722 12.9843 6.71378 13.0222C6.62302 13.058 6.45563 13.062 6.41328 13.1318C6.69966 13.2934 7.05461 13.3113 7.37931 13.3711C7.222 13.433 7.04856 13.4489 6.8973 13.5207C7.24217 13.6344 7.57897 13.764 7.91576 13.8956C8.56314 14.1549 9.25086 14.3443 9.96277 14.3822C9.71874 14.3403 9.47875 14.2745 9.24279 14.2027C8.64986 14.0213 8.04887 13.8338 7.50838 13.5466C7.62938 13.4629 7.77459 13.413 7.89156 13.3233C7.65762 13.3153 7.42166 13.2495 7.21797 13.1458C6.99814 13.074 7.25628 12.9843 7.33897 12.9085C7.32284 12.8347 7.11309 12.8227 7.01831 12.7808C6.87108 12.7848 6.82672 12.6213 6.94369 12.5495C7.1131 12.4737 6.86705 12.4279 6.79243 12.3999C6.66336 12.3381 6.81663 12.1945 6.75411 12.1228C6.4516 12.0789 6.20354 11.9054 5.97363 11.7359C6.01598 11.696 6.23581 11.704 6.34874 11.688C6.11682 11.5364 5.91111 11.345 5.75179 11.1296C5.81229 11.0897 6.02606 11.1236 6.14505 11.1117C6.12085 10.8444 5.94338 10.6051 5.76792 10.3957C5.778 10.3239 5.97161 10.3279 6.05027 10.3778Z" fill="#FEC50C"/>
</svg>
