<svg width="87" height="95" viewBox="0 0 87 95" fill="none" xmlns="http://www.w3.org/2000/svg">
<g clip-path="url(#clip0_0_260)">
<path d="M81.0882 49.5214C77.0903 45.1851 72.4686 49.2437 72.4686 49.2437V26.4158C72.4686 25.6492 71.8984 25.0272 71.1948 25.0272C70.4906 25.0272 69.9204 25.6492 69.9204 26.4158V51.1971C69.9204 51.1971 63.8437 56.4164 61.2318 57.6922V16.5896C61.2318 14.6789 62.6582 13.1247 64.4118 13.1247H66.7403C68.494 13.1247 69.9204 14.6789 69.9204 16.5896V20.7314C69.9204 21.4987 70.4906 22.1199 71.1948 22.1199C71.8984 22.1199 72.4686 21.4987 72.4686 20.7314V16.5896C72.4686 13.1479 69.8992 10.3483 66.7403 10.3483H64.4118C61.253 10.3483 58.6829 13.1479 58.6829 16.5896V58.7929C57.9229 59.025 57.143 59.1827 56.3505 59.2659V29.9927C56.3505 26.5336 53.7678 23.7196 50.5937 23.7196H48.3216C45.1475 23.7196 42.5648 26.5336 42.5648 29.9927V44.14L40.2317 45.4895V40.7815C40.2317 37.6674 37.9065 35.134 35.049 35.134H31.6293C28.7712 35.134 26.4467 37.6674 26.4467 40.7815V53.4621L22.2856 55.8682L10.6007 59.5067C8.56762 60.1395 6.86972 61.5902 5.82098 63.5906C4.77157 65.5917 4.48682 67.9219 5.01916 70.1515L6.3261 75.6305C6.50266 76.3725 7.19829 76.8173 7.87997 76.6249C8.56099 76.4318 8.96986 75.6739 8.79264 74.9312L7.48569 69.4529C6.72768 66.2752 8.40368 63.0786 11.3017 62.1768L21.9849 58.85L30.0144 82.1994C30.5521 83.763 30.4671 88.2237 26.2197 89.8675L18.1464 91.8657C15.3327 92.5615 12.5601 90.7238 11.834 87.6805L10.1952 80.8094C10.0179 80.0674 9.32232 79.6219 8.6413 79.8143C7.95962 80.0074 7.55141 80.7653 7.72797 81.508L9.36746 88.3799C10.2888 92.2403 13.4363 94.7911 16.9403 94.7911C19.515 94.7911 26.7845 92.5752 26.7845 92.5752C28.9969 92.0285 30.8833 90.4663 31.9592 88.2909C32.8473 86.4959 33.1109 84.4305 32.7299 82.4626L60.6609 75.0122C62.9708 74.3953 65.1639 73.1998 67.0012 71.5545L80.5937 59.3859C84.7375 55.3815 82.3068 50.8427 81.0882 49.5214ZM48.3216 26.4968H50.5937C52.3626 26.4968 53.8016 28.0654 53.8016 29.9927V59.3353L45.7602 59.3317C45.0214 59.3244 45.5325 58.7929 45.573 58.7567L47.8888 56.7129C50.0494 54.8059 51.4605 52.1546 52.0825 48.8315C52.4774 46.7233 51.7393 44.613 50.1576 43.3243C48.68 42.1209 46.7797 41.8894 45.1137 42.685V29.9927C45.1137 28.0654 46.5527 26.4968 48.3216 26.4968ZM28.9955 40.7815C28.9955 39.1991 30.177 37.9111 31.6293 37.9111H35.049C36.5013 37.9111 37.6835 39.1991 37.6835 40.7815V46.9634L28.9949 51.9883V40.7815H28.9955ZM78.9761 57.2409L65.3829 69.4095C63.839 70.7923 61.9964 71.7968 60.0549 72.3146L31.9181 79.8208L24.3512 57.8187L45.9566 45.3232C46.8348 44.8148 47.8351 44.8994 48.6309 45.5481C49.4268 46.1968 49.7839 47.2166 49.5854 48.2768C49.0843 50.9519 47.9738 53.0644 46.2845 54.5549L43.9687 56.5994C43.0195 57.4369 42.6697 58.7885 43.0772 60.0433C43.4848 61.2973 44.5375 62.1088 45.7588 62.1088L55.0442 62.1131H55.0508C58.3564 62.1131 61.5331 61.0182 64.2373 58.9462L74.6145 50.9953C76.0675 49.8816 78.0236 50.0783 79.2648 51.4625C79.9797 52.258 81.3789 54.6222 78.9761 57.2409Z" fill="#8E2C23"/>
<path d="M25.1338 83.089C25.1338 80.0725 22.8816 77.6179 20.1131 77.6179C17.3446 77.6179 15.0924 80.0725 15.0924 83.089C15.0924 86.1047 17.3446 88.5593 20.1131 88.5593C22.8816 88.5593 25.1338 86.1047 25.1338 83.089ZM17.6413 83.089C17.6413 81.6035 18.7497 80.395 20.1131 80.395C21.4758 80.395 22.5849 81.6035 22.5849 83.089C22.5849 84.5737 21.4765 85.7822 20.1131 85.7822C18.7497 85.7822 17.6413 84.5737 17.6413 83.089Z" fill="#8E2C23"/>
<path d="M10.9485 43.5969L29.4741 23.2568L33.6412 25.605C35.134 26.4461 36.9507 26.1583 38.1614 24.8883L48.2453 14.3122C48.2453 14.3122 47.9678 19.7442 52.1661 19.7442C54.3273 19.7442 56.0863 17.8277 56.0863 15.4722V4.27124C56.0863 4.25823 56.0856 4.24449 56.0856 4.23074C56.0717 1.30828 54.1103 0 52.1661 0H41.9754C39.8135 0 38.0552 1.91649 38.0552 4.27124C38.0552 8.96629 42.4407 8.54249 42.4407 8.54249L34.7477 16.6106L30.5202 14.2283C28.9916 13.3663 27.1496 13.6823 25.9363 15.013L5.38357 37.5791C3.8609 39.2512 3.8702 41.961 5.40481 43.6201C6.14424 44.4192 8.66919 46.0804 10.9485 43.5969ZM7.19232 39.5354L27.745 16.9693C28.0105 16.6785 28.4367 16.1694 29.3493 16.6952L34.3879 19.5345C34.8732 19.8078 35.4639 19.7145 35.8575 19.3016L46.4857 8.15485C46.86 7.76215 46.9782 7.16044 46.7837 6.6354C46.5892 6.10963 46.1219 5.76611 45.6015 5.76611H41.9754C41.2194 5.76611 40.6041 5.0957 40.6041 4.27124C40.6041 3.44751 41.2194 2.7771 41.9754 2.7771H52.1661C52.5412 2.7771 53.5368 2.7771 53.5368 4.26257C53.5368 4.27486 53.5375 4.28715 53.5375 4.30017V15.4722C53.5375 16.296 52.9222 16.9664 52.1661 16.9664C51.4094 16.9664 50.7941 16.296 50.7941 15.4722V11.0484C50.7941 10.4915 50.4888 9.98817 50.0189 9.77049C49.5489 9.55208 49.0046 9.66201 48.6362 10.0482L36.3938 22.888C35.9704 23.332 35.3345 23.4333 34.8128 23.1389L29.8146 20.322C29.3201 20.0436 28.7168 20.147 28.3245 20.5773L9.1398 41.6406C8.30346 42.5519 7.45849 41.9285 7.19962 41.6486C6.6633 41.0679 6.65998 40.1198 7.19232 39.5354Z" fill="#8E2C23"/>
</g>
<defs>
<clipPath id="clip0_0_260">
<rect width="87" height="94.7913" fill="white"/>
</clipPath>
</defs>
</svg>
