<svg width="80" height="86" viewBox="0 0 80 86" fill="none" xmlns="http://www.w3.org/2000/svg">
<g clip-path="url(#clip0_0_227)">
<path d="M51.4087 10.6269C50.6047 4.56888 45.6995 0 39.9994 0C36.3336 0 32.8522 1.9016 30.6876 5.08859C30.2455 5.73854 30.3777 6.65027 30.9823 7.12556C31.585 7.59915 32.4351 7.45865 32.8764 6.80785C34.5333 4.37074 37.1957 2.91539 39.999 2.91539C44.3584 2.91539 48.1088 6.40771 48.7237 11.0381C48.8206 11.7653 49.401 12.2902 50.0648 12.2902C50.128 12.2902 50.1931 12.285 50.2579 12.2756C50.9991 12.1616 51.5144 11.4233 51.4087 10.6269Z" fill="#8E2C23"/>
<path d="M70.9924 26.9444L66.9246 19.6561C66.6799 19.2167 66.2386 18.9485 65.7619 18.9485H61.8637C61.1153 18.9485 60.5079 19.6014 60.5079 20.406C60.5079 21.2105 61.1153 21.8635 61.8637 21.8635H64.9944L67.4351 26.2363H12.5632L15.0039 21.8635H16.4399C17.1884 21.8635 17.7957 21.2105 17.7957 20.406C17.7957 19.6014 17.1884 18.9485 16.4399 18.9485H14.2364C13.7597 18.9485 13.3184 19.2167 13.0737 19.6561L9.0059 26.9444C8.75444 27.3953 8.74848 27.956 8.98882 28.4129C9.22915 28.8699 9.67963 29.1526 10.1686 29.1526H69.8297C70.3187 29.1526 70.7688 28.8699 71.0095 28.4129C71.2502 27.956 71.2439 27.3945 70.9924 26.9444Z" fill="#8E2C23"/>
<path d="M64.2337 13.5043C64.0439 13.175 63.7408 12.9415 63.3904 12.8535L44.9062 8.20602C44.5562 8.11762 44.1876 8.18339 43.8817 8.38666C43.5766 8.59078 43.3589 8.91661 43.2771 9.29326L41.8831 15.6988C41.7123 16.4825 42.1652 17.2665 42.8945 17.4493C43.6235 17.6329 44.3536 17.1461 44.5236 16.362L45.6089 11.3764L61.4522 15.3602L58.9627 26.8027C58.7919 27.5863 59.2447 28.3703 59.9741 28.5531C60.0786 28.5792 60.1822 28.5916 60.2847 28.5916C60.9005 28.5916 61.4578 28.138 61.6028 27.4663L64.4014 14.6048C64.484 14.2285 64.4236 13.8323 64.2337 13.5043Z" fill="#8E2C23"/>
<path d="M40.7164 16.95L39.481 5.71674C39.4389 5.33283 39.2565 4.98223 38.9737 4.74309C38.6909 4.50395 38.3337 4.39462 37.975 4.43989L15.2963 7.32155C14.5531 7.41635 14.0215 8.14061 14.1093 8.94045L16.1691 27.6759C16.2509 28.4177 16.836 28.963 17.5141 28.963C17.567 28.963 17.6214 28.9592 17.6754 28.9528C18.4183 28.858 18.9498 28.1337 18.8624 27.3339L16.9616 10.0448L36.9474 7.5056L38.0231 17.2912C38.1113 18.0906 38.7818 18.6586 39.529 18.568C40.2723 18.4741 40.8038 17.7494 40.7164 16.95Z" fill="#8E2C23"/>
<path d="M51.4401 27.1408L48.7488 15.1094C48.6646 14.7341 48.4449 14.4091 48.1386 14.2071C47.8323 14.0068 47.4649 13.944 47.1133 14.0337L25.27 19.6809C24.5418 19.8688 24.0937 20.6562 24.2685 21.439L25.6136 27.4526C25.7884 28.2362 26.5209 28.7183 27.2487 28.5291C27.9768 28.3412 28.4249 27.5538 28.2501 26.771L27.2217 22.1744L46.4285 17.2096L48.8028 27.8232C48.9518 28.4915 49.5079 28.9399 50.1201 28.9399C50.2253 28.9399 50.3318 28.9267 50.4386 28.8989C51.1668 28.7106 51.6149 27.9236 51.4401 27.1408Z" fill="#8E2C23"/>
<path d="M71.1852 27.6205C71.1478 26.8458 70.5528 26.2377 69.8306 26.2377H10.1695C9.44733 26.2377 8.85226 26.8454 8.81491 27.6205L6.10292 84.4679C6.08385 84.8667 6.21812 85.257 6.47395 85.5466C6.73017 85.8357 7.08531 86.0001 7.45713 86.0001H72.5418C72.9132 86.0001 73.2687 85.8361 73.5261 85.5466C73.7816 85.257 73.9158 84.8671 73.8972 84.4679L71.1852 27.6205ZM8.88403 83.0847L11.457 29.1527H68.5415L71.1145 83.0847H8.88403Z" fill="#8E2C23"/>
<path d="M50.1689 32.0676C47.9256 32.0676 46.1011 34.029 46.1011 36.4405C46.1011 38.852 47.9256 40.8134 50.1689 40.8134C52.4121 40.8134 54.2367 38.852 54.2367 36.4405C54.2367 34.029 52.4121 32.0676 50.1689 32.0676ZM50.1689 37.8984C49.4209 37.8984 48.8131 37.2446 48.8131 36.4409C48.8131 35.6372 49.4213 34.9834 50.1689 34.9834C50.9165 34.9834 51.5247 35.6372 51.5247 36.4409C51.5247 37.2446 50.9165 37.8984 50.1689 37.8984Z" fill="#8E2C23"/>
<path d="M29.8299 32.0676C27.5867 32.0676 25.7621 34.029 25.7621 36.4405C25.7621 38.852 27.5867 40.8134 29.8299 40.8134C32.0732 40.8134 33.8977 38.852 33.8977 36.4405C33.8977 34.029 32.0732 32.0676 29.8299 32.0676ZM29.8299 37.8984C29.0823 37.8984 28.4741 37.2446 28.4741 36.4409C28.4741 35.6372 29.0823 34.9834 29.8299 34.9834C30.5775 34.9834 31.1857 35.6372 31.1857 36.4409C31.1857 37.2446 30.5775 37.8984 29.8299 37.8984Z" fill="#8E2C23"/>
<path d="M50.1689 36.4404H50.0644C49.316 36.4404 48.7086 37.0934 48.7086 37.8979C48.7086 38.0969 48.7452 38.2869 48.8131 38.4599V45.9147C48.8131 51.1387 44.8593 55.3894 39.9994 55.3894C35.1395 55.3894 31.1857 51.1391 31.1857 45.9147V37.8983C31.1857 37.0938 30.5784 36.4409 29.83 36.4409C29.0815 36.4409 28.4742 37.0938 28.4742 37.8983V45.9151C28.4742 52.7469 33.6443 58.3048 39.9994 58.3048C46.3546 58.3048 51.5247 52.7469 51.5247 45.9151V37.8983C51.5247 37.0938 50.9173 36.4404 50.1689 36.4404Z" fill="#8E2C23"/>
</g>
<defs>
<clipPath id="clip0_0_227">
<rect width="80" height="86" fill="white"/>
</clipPath>
</defs>
</svg>
