<svg width="83" height="91" viewBox="0 0 83 91" fill="none" xmlns="http://www.w3.org/2000/svg">
<path d="M82.5231 0.517342C82.2189 0.186166 81.8065 0 81.3765 0L41.4985 0.00229616C40.6034 0.00229616 39.8776 0.793235 39.8776 1.76857V6.81959L24.5114 11.3058C23.6466 11.5583 23.1333 12.5268 23.3651 13.4689L31.3291 45.8522L24.4396 53.3587C23.5628 51.9637 22.0905 51.0463 20.4251 51.0463H4.86312C2.18151 51.0463 0 53.4233 0 56.3449V85.1345C0 88.0563 2.18151 90.4333 4.86312 90.4333H20.4253C22.7034 90.4333 24.6199 88.7172 25.1451 86.4098L27.0726 88.2412C28.5606 89.655 30.467 90.4335 32.4413 90.4335H81.3768C82.272 90.4335 82.9979 89.6426 82.9979 88.6673V1.76628C82.9976 1.29786 82.827 0.848519 82.5231 0.517342ZM22.0461 85.1347C22.0461 86.1084 21.3188 86.901 20.425 86.901H4.86296C3.96909 86.901 3.24186 86.1086 3.24186 85.1347V56.3451C3.24186 55.3712 3.96909 54.5788 4.86296 54.5788H11.0229V74.9254C11.0229 75.9008 11.7489 76.6917 12.644 76.6917C13.5392 76.6917 14.2651 75.9008 14.2651 74.9254V54.5788H20.4251C21.319 54.5788 22.0462 55.3712 22.0462 56.3451V85.1347H22.0461ZM26.9163 14.2607L39.8776 10.4767V17.0216L38.7911 17.3388C38.3757 17.4602 38.0218 17.756 37.8068 18.1617C37.5919 18.5674 37.5335 19.0495 37.6449 19.502C38.2679 22.035 36.8833 24.6479 34.5585 25.3266C34.1427 25.4482 33.7881 25.7445 33.5733 26.1511C33.3585 26.5576 33.3007 27.0405 33.413 27.4933L39.7319 52.9874H36.4783L34.8016 45.8403C34.7483 45.6129 34.6549 45.4032 34.5299 45.2209L26.9163 14.2607ZM39.8776 25.1216V40.0256L36.9209 28.097C38.156 27.4022 39.1668 26.3626 39.8776 25.1216ZM63.1669 86.9008H32.441C31.2503 86.9008 30.1005 86.4313 29.203 85.5787L25.2882 81.8588V57.4299L32.3656 49.7187L33.6492 55.1907C33.8327 55.9726 34.479 56.5194 35.2197 56.5194L67.0911 56.5215C68.3426 56.5215 69.3606 57.6308 69.3606 58.9943C69.3606 60.3579 68.3426 61.4671 67.0911 61.4671H50.7602C49.865 61.4671 49.1391 62.2581 49.1391 63.2334C49.1391 64.2087 49.865 64.9997 50.7602 64.9997H72.1651C73.4166 64.9997 74.4346 66.1089 74.4346 67.4725C74.4346 68.836 73.4166 69.9453 72.1651 69.9453H50.7602C49.865 69.9453 49.1391 70.7362 49.1391 71.7115C49.1391 72.6869 49.865 73.4778 50.7602 73.4778H68.6964C69.9479 73.4778 70.966 74.587 70.966 75.9506C70.966 77.3142 69.9479 78.4234 68.6964 78.4234H50.7602C49.865 78.4234 49.1391 79.2143 49.1391 80.1897C49.1391 81.165 49.865 81.9559 50.7602 81.9559H63.1669C64.4184 81.9559 65.4364 83.0651 65.4364 84.4287C65.4363 85.7916 64.4182 86.9008 63.1669 86.9008ZM79.7557 86.9008H79.7555H68.1876C68.5019 86.1461 68.6784 85.3094 68.6784 84.428C68.6784 83.5466 68.5019 82.71 68.1876 81.9552H68.6964C71.7355 81.9552 74.208 79.2613 74.208 75.9501C74.208 74.9843 73.9964 74.0716 73.6229 73.2623C75.9567 72.5639 77.6765 70.2333 77.6765 67.4721C77.6765 66.1326 77.2715 64.8942 76.5886 63.8945V41.5087C76.5886 40.5334 75.8626 39.7425 74.9675 39.7425C74.0723 39.7425 73.3464 40.5334 73.3464 41.5087V61.6075C72.9654 61.5166 72.5704 61.4671 72.1648 61.4671H72.1116C72.4259 60.7124 72.6025 59.8757 72.6025 58.9943C72.6025 55.6829 70.13 52.9892 67.0909 52.9892H64.485C67.252 51.6963 69.1954 48.6996 69.1954 45.2167C69.1954 40.5556 65.7152 36.7636 61.4373 36.7636C57.1596 36.7636 53.6793 40.5556 53.6793 45.2167C53.6793 48.6996 55.6228 51.6963 58.3897 52.9892H49.5283V19.4048C52.4242 18.7172 54.7093 16.2277 55.3402 13.0722H67.5343C68.1652 16.2277 70.4503 18.7172 73.3462 19.4048V24.8962C73.3462 25.8715 74.0721 26.6625 74.9673 26.6625C75.8625 26.6625 76.5884 25.8715 76.5884 24.8962V17.8279C76.5884 16.8526 75.8625 16.0616 74.9673 16.0616C72.5605 16.0616 70.6027 13.9281 70.6027 11.3059C70.6027 10.3306 69.8768 9.53966 68.9816 9.53966H53.8931C52.9979 9.53966 52.272 10.3306 52.272 11.3059C52.272 13.9283 50.314 16.0616 47.9074 16.0616C47.0122 16.0616 46.2863 16.8526 46.2863 17.8279V52.989H43.12V3.5345L79.7557 3.53255V86.9008ZM61.4377 50.1372C58.9475 50.1372 56.9218 47.9299 56.9218 45.2169C56.9218 42.5039 58.9477 40.2964 61.4377 40.2964C63.9277 40.2964 65.9535 42.5037 65.9535 45.2167C65.9535 47.9297 63.9278 50.1372 61.4377 50.1372Z" fill="#8E2C23"/>
</svg>
