<svg width="151" height="39" viewBox="0 0 151 39" fill="none" xmlns="http://www.w3.org/2000/svg">
<path d="M108.528 20.3186C108.528 9.22088 102.81 2.08301 93.6741 2.08301H83.8812V8.31722L85.8489 14.3281V4.06293H93.439C101.451 4.06293 106.464 10.3657 106.464 20.3186C106.464 30.373 101.451 36.6275 93.439 36.6275H93.1468L93.7768 38.5516C102.851 38.4983 108.528 31.4264 108.528 20.3186Z" fill="white"/>
<path d="M68.1099 2.08301L61.5904 20.2095L62.5811 23.2353L69.1873 4.53L76.8253 26.1544H63.5353L64.1836 28.1343H77.5284L81.2287 38.5544H83.3859L70.2648 2.08301H68.1099Z" fill="white"/>
<path d="M41.3564 22.2961L50.5877 38.5544H52.8842L43.4177 21.9864C48.1498 20.6842 50.9142 17.4021 50.9142 12.2949C50.9142 5.88803 46.6021 2.08301 39.2472 2.08301H29.8766V8.75385L31.8443 14.7647V4.0604H39.06C45.5247 4.0604 48.9465 7.13691 48.9465 12.2923C48.9465 17.3462 45.5247 20.4735 39.06 20.4735H33.7115L34.3598 22.4535H38.0738C39.2472 22.456 40.3269 22.4027 41.3564 22.2961Z" fill="white"/>
<path d="M118.563 28.4733L116.186 21.5659H116.148C116.193 22.1142 116.214 22.7641 116.214 23.5155V28.4733H115.461V20.6799H116.689L118.907 27.1075H118.946L121.183 20.6799H122.4V28.4733H121.585V23.452C121.585 22.8758 121.608 22.2513 121.651 21.576H121.613L119.216 28.4733H118.563Z" fill="white"/>
<path d="M128.965 28.4733H125.06V20.6799H128.965V21.4847H125.875V23.9953H128.778V24.7949H125.875V27.6635H128.965V28.4733Z" fill="white"/>
<path d="M136.848 24.503C136.848 25.79 136.533 26.7724 135.905 27.4528C135.277 28.1331 134.373 28.4733 133.195 28.4733H131.255V20.6799H133.403C134.492 20.6799 135.339 21.015 135.944 21.6877C136.546 22.3604 136.848 23.2972 136.848 24.503ZM135.985 24.5334C135.985 23.518 135.756 22.7514 135.298 22.2361C134.839 21.7207 134.159 21.4643 133.252 21.4643H132.068V27.6889H133.061C134.031 27.6889 134.761 27.4223 135.25 26.8918C135.741 26.3612 135.985 25.5742 135.985 24.5334Z" fill="white"/>
<path d="M139.147 28.4733V20.6799H139.961V28.4733H139.147Z" fill="white"/>
<path d="M147.024 28.4742L146.152 25.9967H143.344L142.481 28.4742H141.657L144.429 20.6509H145.113L147.869 28.4742H147.024ZM145.899 25.1794L145.084 22.7654C144.979 22.4608 144.869 22.0851 144.757 21.6409C144.686 21.981 144.586 22.3567 144.456 22.7654L143.632 25.1794H145.899Z" fill="white"/>
<path d="M118.542 34.809H120.926V38.599C120.556 38.731 120.177 38.83 119.793 38.8986C119.41 38.9671 118.965 39.0001 118.46 39.0001C117.399 39.0001 116.575 38.6498 115.983 37.9466C115.392 37.2434 115.098 36.261 115.098 34.9969C115.098 34.1871 115.244 33.4763 115.536 32.867C115.828 32.2578 116.25 31.7932 116.798 31.4708C117.348 31.1485 117.992 30.9885 118.73 30.9885C119.478 30.9885 120.174 31.1408 120.818 31.4455L120.503 32.2451C119.871 31.9455 119.261 31.7983 118.677 31.7983C117.823 31.7983 117.157 32.0801 116.677 32.6462C116.198 33.2123 115.958 33.9941 115.958 34.9969C115.958 36.0478 116.189 36.8474 116.65 37.3907C117.111 37.9339 117.789 38.2055 118.684 38.2055C119.17 38.2055 119.645 38.1446 120.108 38.0202V35.6213H118.54V34.809H118.542Z" fill="white"/>
<path d="M124.158 35.6528V38.8938H123.343V31.1023H125.265C126.126 31.1023 126.76 31.285 127.171 31.6505C127.582 32.016 127.787 32.5667 127.787 33.3027C127.787 34.3331 127.317 35.0285 126.379 35.3914L128.281 38.8913H127.317L125.621 35.6503H124.158V35.6528ZM124.158 34.8737H125.274C125.849 34.8737 126.272 34.7468 126.539 34.493C126.806 34.2392 126.941 33.8585 126.941 33.3509C126.941 32.8357 126.804 32.4652 126.532 32.2368C126.258 32.0083 125.82 31.8967 125.217 31.8967H124.158V34.8737Z" fill="white"/>
<path d="M136.229 34.986C136.229 36.2324 135.946 37.2148 135.377 37.9281C134.809 38.6415 134.022 38.9994 133.013 38.9994C131.981 38.9994 131.184 38.6491 130.623 37.9459C130.061 37.2453 129.782 36.2527 129.782 34.9733C129.782 33.704 130.063 32.7216 130.627 32.0235C131.189 31.3254 131.988 30.9751 133.024 30.9751C134.031 30.9751 134.816 31.3305 135.382 32.0413C135.946 32.7546 136.229 33.737 136.229 34.986ZM130.645 34.986C130.645 36.042 130.846 36.8417 131.253 37.3874C131.657 37.9332 132.243 38.2049 133.015 38.2049C133.791 38.2049 134.378 37.9332 134.775 37.39C135.172 36.8467 135.368 36.0446 135.368 34.986C135.368 33.9376 135.172 33.143 134.777 32.5998C134.382 32.0591 133.798 31.7874 133.026 31.7874C132.25 31.7874 131.659 32.0616 131.255 32.6048C130.851 33.1481 130.645 33.9452 130.645 34.986Z" fill="white"/>
<path d="M143.819 31.1023V36.143C143.819 37.0313 143.577 37.7293 143.095 38.237C142.614 38.7446 141.949 38.9984 141.107 38.9984C140.265 38.9984 139.612 38.742 139.148 38.2319C138.687 37.7192 138.457 37.0161 138.457 36.1227V31.1023H139.272V36.1862C139.272 36.8359 139.431 37.3359 139.751 37.6836C140.071 38.0314 140.541 38.2065 141.16 38.2065C141.751 38.2065 142.205 38.0314 142.525 37.6811C142.844 37.3308 143.004 36.8283 143.004 36.176V31.1023H143.819Z" fill="white"/>
<path d="M150.854 33.3713C150.854 34.1607 150.612 34.7674 150.128 35.1913C149.645 35.6152 148.951 35.8284 148.051 35.8284H147.227V38.892H146.412V31.0996H148.229C149.978 31.1021 150.854 31.8585 150.854 33.3713ZM147.225 35.0491H147.958C148.679 35.0491 149.202 34.9197 149.526 34.6608C149.848 34.4019 150.01 33.9856 150.01 33.4145C150.01 32.8992 149.857 32.516 149.555 32.2621C149.252 32.0108 148.779 31.8839 148.138 31.8839H147.227V35.0491H147.225Z" fill="white"/>
<path d="M10.6672 2.4114C15.3536 2.4114 18.8211 4.44191 21.5375 8.92428L23.1765 7.77704C20.4601 3.03832 16.148 0.431641 10.6215 0.431641C6.225 0.431641 2.56122 2.42662 0 5.79221L0.773844 8.15522C3.02918 4.52821 6.50349 2.4114 10.6672 2.4114Z" fill="white"/>
<path d="M23.083 32.369V19.032H11.5575V21.012H21.1153V31.5364C19.006 34.453 14.9314 36.1716 11.2745 36.1716C10.8134 36.1716 10.3614 36.1462 9.92081 36.103L10.5851 38.1338C10.7974 38.1414 11.0097 38.1516 11.2265 38.1516C15.5865 38.1541 20.3186 36.2274 23.083 32.369Z" fill="white"/>
</svg>
